<svg width="25" height="25" viewBox="0 0 25 25" fill="none" xmlns="http://www.w3.org/2000/svg">
<path fill-rule="evenodd" clip-rule="evenodd" d="M5.90425 13.5196C10.4949 13.5196 10.6991 15.0766 10.6991 18.3145C10.6991 19.9369 10.6991 21.091 10.0177 21.936C9.23358 22.9097 7.8064 23.1094 5.90425 23.1094C4.00209 23.1094 2.57491 22.9097 1.79081 21.936C1.10938 21.091 1.10938 19.938 1.10938 18.3427L1.95553 18.3145H1.10938C1.10938 15.0766 1.31358 13.5196 5.90425 13.5196ZM18.3145 13.5196C22.9052 13.5196 23.1094 15.0766 23.1094 18.3145C23.1094 19.9369 23.1094 21.091 22.4279 21.936C21.6438 22.9097 20.2167 23.1094 18.3145 23.1094C16.4123 23.1094 14.9852 22.9097 14.2011 21.936C13.5196 21.091 13.5196 19.938 13.5196 18.3427L14.3658 18.3145H13.5196C13.5196 15.0766 13.7238 13.5196 18.3145 13.5196ZM6.13684 15.2124L5.90425 15.2119C2.96079 15.2119 2.80984 15.4232 2.8021 17.8937L2.80257 18.8562C2.80792 19.8389 2.84536 20.5487 3.10743 20.8755C3.4064 21.2456 4.2943 21.4171 5.90425 21.4171C7.5142 21.4171 8.40209 21.2445 8.70107 20.8744C9.00681 20.4942 9.00681 19.5916 9.00681 18.3416C9.00681 15.5208 9.00681 15.2257 6.13684 15.2124ZM18.5471 15.2124L18.3145 15.2119C15.371 15.2119 15.2201 15.4232 15.2124 17.8937L15.2128 18.8562C15.2182 19.8389 15.2556 20.5487 15.5177 20.8755C15.8167 21.2456 16.7046 21.4171 18.3145 21.4171C19.9245 21.4171 20.8124 21.2445 21.1113 20.8744C21.4171 20.4942 21.4171 19.5916 21.4171 18.3416C21.4171 15.5208 21.4171 15.2257 18.5471 15.2124ZM5.90425 1.10938C10.4949 1.10938 10.6991 2.6663 10.6991 5.90425C10.6991 7.52661 10.6991 8.68076 10.0177 9.52579C9.23358 10.4994 7.8064 10.6991 5.90425 10.6991C4.00209 10.6991 2.57491 10.4994 1.79081 9.52579C1.10938 8.68076 1.10938 7.52773 1.10938 5.93245L1.95553 5.90425H1.10938C1.10938 2.6663 1.31358 1.10938 5.90425 1.10938ZM18.3145 1.10938C22.9052 1.10938 23.1094 2.6663 23.1094 5.90425C23.1094 7.52661 23.1094 8.68076 22.4279 9.52579C21.6438 10.4994 20.2167 10.6991 18.3145 10.6991C16.4123 10.6991 14.9852 10.4994 14.2011 9.52579C13.5196 8.68076 13.5196 7.52773 13.5196 5.93245L14.3658 5.90425H13.5196C13.5196 2.6663 13.7238 1.10938 18.3145 1.10938ZM6.13684 2.80219L5.90425 2.80168C2.96079 2.80168 2.80984 3.0129 2.8021 5.48348L2.80257 6.44599C2.80792 7.42861 2.84536 8.13842 3.10743 8.46527C3.4064 8.83532 4.2943 9.00681 5.90425 9.00681C7.5142 9.00681 8.40209 8.8342 8.70107 8.46414C9.00681 8.08394 9.00681 7.18138 9.00681 5.93132C9.00681 3.11058 9.00681 2.81547 6.13684 2.80219ZM18.5471 2.80219L18.3145 2.80168C15.371 2.80168 15.2201 3.0129 15.2124 5.48348L15.2128 6.44599C15.2182 7.42861 15.2556 8.13842 15.5177 8.46527C15.8167 8.83532 16.7046 9.00681 18.3145 9.00681C19.9245 9.00681 20.8124 8.8342 21.1113 8.46414C21.4171 8.08394 21.4171 7.18138 21.4171 5.93132C21.4171 3.11058 21.4171 2.81547 18.5471 2.80219Z" fill="black"/>
</svg>
