<svg width="32" height="32" viewBox="0 0 32 32" fill="none" xmlns="http://www.w3.org/2000/svg">
<path opacity="0.4" d="M21.5867 2.66669H10.4134C5.56008 2.66669 2.66675 5.56002 2.66675 10.4134V21.5734C2.66675 26.44 5.56008 29.3334 10.4134 29.3334H21.5734C26.4267 29.3334 29.3201 26.44 29.3201 21.5867V10.4134C29.3334 5.56002 26.4401 2.66669 21.5867 2.66669Z" fill="white"/>
<path d="M17.4136 16L20.4802 12.9333C20.8669 12.5466 20.8669 11.9066 20.4802 11.52C20.0936 11.1333 19.4536 11.1333 19.0669 11.52L16.0002 14.5866L12.9336 11.52C12.5469 11.1333 11.9069 11.1333 11.5202 11.52C11.1336 11.9066 11.1336 12.5466 11.5202 12.9333L14.5869 16L11.5202 19.0666C11.1336 19.4533 11.1336 20.0933 11.5202 20.48C11.7202 20.68 11.9736 20.7733 12.2269 20.7733C12.4802 20.7733 12.7336 20.68 12.9336 20.48L16.0002 17.4133L19.0669 20.48C19.2669 20.68 19.5202 20.7733 19.7736 20.7733C20.0269 20.7733 20.2802 20.68 20.4802 20.48C20.8669 20.0933 20.8669 19.4533 20.4802 19.0666L17.4136 16Z" fill="#7390EB"/>
</svg>
