<svg width="32" height="32" viewBox="0 0 32 32" fill="none" xmlns="http://www.w3.org/2000/svg">
<path opacity="0.4" d="M21.5866 2.66675H10.4133C5.55996 2.66675 2.66663 5.56008 2.66663 10.4134V21.5734C2.66663 26.4401 5.55996 29.3334 10.4133 29.3334H21.5733C26.4266 29.3334 29.32 26.4401 29.32 21.5868V10.4134C29.3333 5.56008 26.44 2.66675 21.5866 2.66675Z" fill="white"/>
<path d="M17.4133 16.0002L20.48 12.9336C20.8666 12.5469 20.8666 11.9069 20.48 11.5202C20.0933 11.1336 19.4533 11.1336 19.0666 11.5202L16 14.5869L12.9333 11.5202C12.5466 11.1336 11.9066 11.1336 11.52 11.5202C11.1333 11.9069 11.1333 12.5469 11.52 12.9336L14.5866 16.0002L11.52 19.0669C11.1333 19.4536 11.1333 20.0936 11.52 20.4802C11.72 20.6802 11.9733 20.7736 12.2266 20.7736C12.48 20.7736 12.7333 20.6802 12.9333 20.4802L16 17.4136L19.0666 20.4802C19.2666 20.6802 19.52 20.7736 19.7733 20.7736C20.0266 20.7736 20.28 20.6802 20.48 20.4802C20.8666 20.0936 20.8666 19.4536 20.48 19.0669L17.4133 16.0002Z" fill="#7390EB"/>
</svg>
