<svg width="24" height="24" viewBox="0 0 24 24" fill="none" xmlns="http://www.w3.org/2000/svg">
<path fill-rule="evenodd" clip-rule="evenodd" d="M11.8344 3.51465C11.4809 3.51465 11.1944 3.80119 11.1944 4.15465V11.195H4.15471C3.80125 11.195 3.51471 11.4816 3.51471 11.835C3.51471 12.1885 3.80125 12.475 4.15471 12.475H11.1944V18.8746C11.1944 19.2281 11.4809 19.5146 11.8344 19.5146C12.1878 19.5146 12.4744 19.2281 12.4744 18.8746V12.475H18.8747C19.2282 12.475 19.5147 12.1885 19.5147 11.835C19.5147 11.4816 19.2282 11.195 18.8747 11.195H12.4744V4.15465C12.4744 3.80119 12.1878 3.51465 11.8344 3.51465Z" fill="#7390EB"/>
</svg>
