<svg width="44" height="44" viewBox="0 0 44 44" fill="none" xmlns="http://www.w3.org/2000/svg">
    <rect x="0.5" y="0.5" width="43" height="43" rx="21.5" stroke="#7390EB"/>
    <path fill-rule="evenodd" clip-rule="evenodd" d="M29.0859 14.9068C28.1634 13.9827 27.0658 13.2499 25.8567 12.7509C24.6476 12.2519 23.3511 11.9967 22.0421 12C16.5535 12 12.0854 16.4458 12.0832 21.9106C12.0832 23.6571 12.5413 25.3617 13.4121 26.8653L12 32L17.279 30.6211C18.7392 31.4122 20.3751 31.8271 22.0377 31.8278H22.0421C27.5296 31.8278 31.9977 27.382 32 21.9172C32.0037 20.615 31.7481 19.325 31.248 18.1217C30.7478 16.9185 30.013 15.8258 29.0859 14.9068ZM22.0421 30.1552H22.0388C20.5563 30.1554 19.1011 29.7584 17.8258 29.006L17.5241 28.8271L14.3916 29.6452L15.2268 26.6059L15.0305 26.2946C14.2016 24.9813 13.7629 23.4615 13.7648 21.9106C13.7671 17.3688 17.4797 13.6737 22.0455 13.6737C23.1328 13.6713 24.2098 13.8835 25.2142 14.2982C26.2186 14.7128 27.1304 15.3216 27.8968 16.0892C28.6673 16.8532 29.278 17.7617 29.6937 18.762C30.1093 19.7623 30.3216 20.8347 30.3183 21.9172C30.3161 26.4591 26.6034 30.1552 22.0421 30.1552ZM26.5823 23.985C26.3327 23.8602 25.1103 23.2619 24.8818 23.1791C24.6544 23.0963 24.4892 23.0554 24.3228 23.3027C24.1564 23.55 23.6794 24.1075 23.5341 24.2731C23.3888 24.4387 23.2435 24.4586 22.995 24.335C22.7465 24.2113 21.9445 23.9497 20.9939 23.1062C20.254 22.4493 19.7548 21.639 19.6095 21.3906C19.4642 21.1422 19.594 21.0086 19.7193 20.885C19.8314 20.7746 19.9678 20.5957 20.0921 20.4511C20.2163 20.3065 20.2573 20.2038 20.3405 20.0382C20.4237 19.8726 20.3827 19.728 20.3195 19.6043C20.2573 19.4796 19.7593 18.2608 19.5518 17.7651C19.3511 17.2849 19.1459 17.3489 18.9928 17.3423C18.8342 17.3358 18.6756 17.3329 18.5169 17.3334C18.3907 17.3366 18.2666 17.3657 18.1522 17.4189C18.0379 17.4721 17.9358 17.5483 17.8525 17.6425C17.6239 17.8909 16.9817 18.4893 16.9817 19.7081C16.9817 20.9269 17.8735 22.1049 17.9978 22.2705C18.122 22.4361 19.7526 24.9366 22.2485 26.0097C22.843 26.2647 23.3067 26.4171 23.6672 26.5319C24.2629 26.7207 24.8053 26.6931 25.2346 26.6302C25.7127 26.5595 26.7066 26.0318 26.914 25.4533C27.1214 24.8748 27.1214 24.3791 27.0593 24.2753C26.9972 24.1716 26.8297 24.1086 26.5823 23.985Z" fill="#7390EB"/>
</svg>
