<svg width="45" height="44" viewBox="0 0 45 44" fill="none" xmlns="http://www.w3.org/2000/svg">
    <rect x="0.71582" y="0.5" width="43" height="43" rx="21.5" stroke="#7390EB"/>
    <path d="M27.2158 30H17.2158C14.2158 30 12.2158 28 12.2158 25V19C12.2158 16 14.2158 14 17.2158 14H27.2158C30.2158 14 32.2158 16 32.2158 19V25C32.2158 28 30.2158 30 27.2158 30Z" stroke="#7390EB" stroke-width="1.5" stroke-miterlimit="10" stroke-linecap="round" stroke-linejoin="round"/>
    <path d="M21.6159 19.4998L24.1159 20.9998C25.0159 21.5998 25.0159 22.4998 24.1159 23.0998L21.6159 24.5998C20.6159 25.1998 19.8159 24.6998 19.8159 23.5998V20.5998C19.8159 19.2998 20.6159 18.8998 21.6159 19.4998Z" stroke="#7390EB" stroke-width="1.5" stroke-miterlimit="10" stroke-linecap="round" stroke-linejoin="round"/>
</svg>
